# xmcd
#
# Track frame offsets:
#  150
#  31953
#  48761
#  62487
#  96397
#  105030
#  117565
#  128429
#  139927
#  147057
#  157482
#  167710
#  172476
#  181212
#  199913
#  213459
#  225386
#  239597
#  252910
#  262918
#  274890
#  291061
#  308988
#  319184
#  340091
#
# Disc length: 4635 seconds
#
# Revision: 0
# Processed by: cddbd v1.5.1PL2 Copyright (c) Steve Scherf et al.
# Submitted via: Collectorz.com_Music_Collector 6.10
#
DISCID=75121919
DTITLE=Frank Zappa - Kings Of World Music - Frank Zappa
DYEAR=2001
DGENRE=Rock
TTITLE0=Invocation and Ritual Dance Of The Young Pumpkin
TTITLE1=Plastic People
TTITLE2=Anyway The Wind Blows
TTITLE3=Brown Shoes Don't Make It
TTITLE4=America Drinks
TTITLE5=America Drinks and Goes Home
TTITLE6=Jelly Rolly Gum Drop
TTITLE7=Big Leg Emma
TTITLE8=Son Of Suzy Creamcheese
TTITLE9=Call Any Vegetable
TTITLE10=The Duke Of Prunes
TTITLE11=Ammesia Vivace
TTITLE12=The Duke Regains His Chops
TTITLE13=I'm Not Satisfied
TTITLE14=Later That Night
TTITLE15=Why Don'tcha Do Me Right?
TTITLE16=Love Of My Life
TTITLE17=Status Back Baby
TTITLE18=Uncle Bernie's Farm
TTITLE19=Cheap Thrills
TTITLE20=How Could I Be Such A Fool
TTITLE21=You Didn't Try To Call Me
TTITLE22="No. No. No."
TTITLE23=Stuff Up The Cracks
TTITLE24=Soft-Sell Conclusion
EXTD=
EXTT0=
EXTT1=
EXTT2=
EXTT3=
EXTT4=
EXTT5=
EXTT6=
EXTT7=
EXTT8=
EXTT9=
EXTT10=
EXTT11=
EXTT12=
EXTT13=
EXTT14=
EXTT15=
EXTT16=
EXTT17=
EXTT18=
EXTT19=
EXTT20=
EXTT21=
EXTT22=
EXTT23=
EXTT24=
PLAYORDER=
